<svg width="24" height="24" viewBox="0 0 24 24" fill="none" xmlns="http://www.w3.org/2000/svg">
<g clip-path="url(#clip0_657_231)">
<rect width="24" height="24" rx="4" fill="#4285F4"/>
<path d="M15.036 6.364V14.968C15.036 16.3 14.658 17.326 13.902 18.046C13.158 18.766 12.15 19.126 10.878 19.126C9.546 19.126 8.478 18.748 7.674 17.992C6.87 17.236 6.468 16.162 6.468 14.77H9.528C9.528 15.298 9.636 15.7 9.852 15.976C10.068 16.24 10.38 16.372 10.788 16.372C11.16 16.372 11.448 16.252 11.652 16.012C11.856 15.772 11.958 15.424 11.958 14.968V6.364H15.036Z" fill="black"/>
</g>
<defs>
<clipPath id="clip0_657_231">
<rect width="24" height="24" rx="4" fill="white"/>
</clipPath>
</defs>
</svg>
